<svg width="512" height="512" viewBox="146 0 1104 1104" fill="none" xmlns="http://www.w3.org/2000/svg" role="img" aria-labelledby="title desc" shape-rendering="geometricPrecision">
  <title id="title">MSPixelPulse app icon</title>
  <desc id="desc">A sharp black interlocking M and S monogram on a solid white background.</desc>
  <rect x="146" width="1104" height="1104" fill="#FFFFFF"/>
  <defs>
    <g id="mark">
      <path d="M914 673L913 904L697 1040L483 904L483 546L560 588L560 858L697 948L836 857L836 641L348 359L348 861L270 861L270 222L483 345L483 186L697 63L913 186L913 255L836 296L836 231L697 152L559 229L559 369L562 392L914 597V673Z"/>
      <path d="M1126 222V861H1048V359L865 465L843 456L784 420L1126 222Z"/>
    </g>
  </defs>
  <use href="#mark" fill="#050505" stroke="#050505" stroke-width="10" paint-order="stroke fill" stroke-linejoin="round" transform="translate(698 552) scale(.82) translate(-698 -552)"/>
</svg>
